HIERARCHY
ROOT Hips
{
     OFFSET 1.88212 96.90440 -13.34250
     CHANNELS 6 Xposition Yposition Zposition Zrotation Xrotation Yrotation
     JOINT Spine
     {
          OFFSET 0.00000 11.89050 0.00000
          CHANNELS 3 Zrotation Xrotation Yrotation
          JOINT Spine1
          {
               OFFSET -0.00000 25.65740 0.12766
               CHANNELS 3 Zrotation Xrotation Yrotation
               JOINT HEad
               {
                    OFFSET 0.00000 8.73416 0.01134
                    CHANNELS 3 Zrotation Xrotation Yrotation
                    End Site
                    {
                         OFFSET -0.29000 12.77420 2.51395
                    }
               }
               JOINT LeftShoulder1
               {
                    OFFSET 8.99000 -0.36225 -0.22000
                    CHANNELS 3 Zrotation Xrotation Yrotation
                    JOINT LeftArm
                    {
                         OFFSET 10.28270 -0.00338 0.32212
                         CHANNELS 3 Zrotation Xrotation Yrotation
                         JOINT LeftForeArm
                         {
                              OFFSET 32.76690 0.09914 -1.42434
                              CHANNELS 3 Zrotation Xrotation Yrotation
                              JOINT LeftHand
                              {
                                   OFFSET 27.56430 0.08536 1.02216
                                   CHANNELS 3 Zrotation Xrotation Yrotation
                                   End Site
                                   {
                                        OFFSET 16.74430 -0.60000 1.50291
                                   }
                              }
                         }
                    }
               }
               JOINT RightShoulder
               {
                    OFFSET -8.99000 -0.36225 -0.22000
                    CHANNELS 3 Zrotation Xrotation Yrotation
                    JOINT RightArm
                    {
                         OFFSET -10.28270 -0.00338 0.32212
                         CHANNELS 3 Zrotation Xrotation Yrotation
                         JOINT RightForeArm
                         {
                              OFFSET -32.89710 0.09914 -1.42434
                              CHANNELS 3 Zrotation Xrotation Yrotation
                              JOINT RightHand
                              {
                                   OFFSET -27.49210 0.08536 1.02216
                                   CHANNELS 3 Zrotation Xrotation Yrotation
                                   End Site
                                   {
                                        OFFSET -16.63120 -0.60000 1.50291
                                   }
                              }
                         }
                    }
               }
          }
     }
     JOINT LeftUpLeg
     {
          OFFSET 8.94580 -8.66707 0.10165
          CHANNELS 3 Zrotation Xrotation Yrotation
          JOINT LeftLeg
          {
               OFFSET 0.00000 -44.42270 1.37270
               CHANNELS 3 Zrotation Xrotation Yrotation
               JOINT LeftFoot
               {
                    OFFSET -0.25355 -42.09240 -1.46059
                    CHANNELS 3 Zrotation Xrotation Yrotation
                    JOINT LeftToes
                    {
                         OFFSET -0.04000 -4.41509 8.49910
                         CHANNELS 3 Zrotation Xrotation Yrotation
                         End Site
                         {
                              OFFSET 0.08000 -0.04745 9.77979
                         }
                    }
               }
          }
     }
     JOINT RightUpLeg
     {
          OFFSET -8.94580 -8.66707 0.10165
          CHANNELS 3 Zrotation Xrotation Yrotation
          JOINT RightLeg
          {
               OFFSET 0.00000 -44.42270 1.37270
               CHANNELS 3 Zrotation Xrotation Yrotation
               JOINT RightFoot
               {
                    OFFSET 0.25355 -42.09240 -1.46059
                    CHANNELS 3 Zrotation Xrotation Yrotation
                    JOINT RightToes
                    {
                         OFFSET 0.04000 -4.41509 8.49910
                         CHANNELS 3 Zrotation Xrotation Yrotation
                         End Site
                         {
                              OFFSET -0.08000 -0.13745 9.77979
                         }
                    }
               }
          }
     }
}
MOTION
Frames: 18
Frame Time: 0.01667
-66.28659 90.76912 -114.76770 -3.37641 -14.77923 -15.53687 -20.51853 36.79539 19.13518 0.00965 0.03683 -0.03512 1.37092 -5.70025 4.03034 4.80364 7.47447 -10.95253 -137.13335 -65.38786 -111.91798 316.25726 61.54923 -98.12076 17.13259 13.81032 14.12818 -0.33269 7.62955 -5.71707 93.71062 14.54565 90.53015 -15.02474 30.01012 96.19303 23.99453 9.71164 2.92454 24.06221 -8.79253 -6.96195 -24.93931 15.76196 63.09919 -22.11945 -0.01403 -0.02580 23.15417 -6.11914 -72.40775 -31.35000 12.88847 36.11034 39.54131 4.92908 -27.29338 -24.54150 -0.00711 0.00827 4.22465 -31.35509 0.09190 
-65.32774 90.85992 -114.61839 -4.77166 -14.47260 -19.61420 -18.97947 37.05054 12.33717 0.01220 0.04185 -0.03194 -0.43850 -6.62247 13.11019 0.92366 7.35378 -1.83211 -134.25151 -60.68525 -115.95818 313.14420 59.78852 -89.62399 17.01675 15.17116 16.45934 -3.16137 6.73339 2.27506 101.49355 9.02611 83.87596 -18.08032 29.76776 104.35110 19.65335 16.03821 -10.35499 25.38968 -9.07071 -11.47587 -27.92584 17.78694 67.94729 -24.12582 -0.04431 -0.05053 23.00166 -8.54948 -69.76783 -32.14400 12.14299 32.74841 38.66947 5.00683 -23.83154 -24.82358 -0.00750 0.02091 5.89371 -29.44028 3.19306 
-64.19431 90.88376 -114.35170 -6.04949 -14.06778 -23.31363 -16.85568 37.24646 4.65239 0.00058 0.05203 -0.02099 -2.19296 -7.87395 22.28446 2.31325 7.70537 -4.16452 -146.04062 -64.61268 -132.14247 315.52838 55.37703 -86.60561 17.43903 15.05881 17.55758 2.28617 7.25697 2.36854 99.18448 10.05912 78.46214 -18.39807 32.03658 110.95693 25.64092 11.92861 -3.42239 26.19473 -9.51387 -16.89416 -31.01594 18.28313 73.62676 -25.33693 -0.01787 -0.03475 22.73590 -10.71627 -67.61554 -33.08734 11.92128 28.46883 37.67346 4.66892 -21.39316 -24.87323 -0.00266 0.01564 8.00866 -27.59550 7.80596 
-62.90902 90.83433 -113.94556 -7.22155 -13.57979 -26.66751 -14.15618 37.39000 -3.71916 0.00203 0.06806 -0.01592 -3.87204 -9.55750 31.41699 -1.74563 6.97560 4.83733 -128.89987 -64.60614 -122.68374 323.14099 45.85371 -83.10943 1.23200 17.03302 33.17186 -1.58277 6.48830 11.22372 103.72931 2.46264 74.20589 -16.76006 34.71572 116.80123 22.68508 11.85691 -3.74646 26.72884 -9.82536 -21.92214 -33.75407 17.91173 78.76692 -25.93826 -0.00490 -0.01455 22.38928 -12.62799 -65.72991 -34.12961 12.18142 23.36238 37.02296 4.82677 -17.71423 -24.68425 0.00918 -0.00385 1.96307 -24.60497 -7.49331 
-61.55044 90.71268 -113.37671 -8.27866 -13.01070 -29.68848 -11.65554 36.75062 -10.96213 -0.03329 0.01885 0.07879 -5.14379 -10.73269 39.14988 -4.98799 6.46226 11.75314 -108.70802 -64.55502 -110.35891 328.33704 33.60469 -74.07954 3.09809 -8.48098 8.29800 4.15906 8.78710 9.96602 97.05010 5.81008 71.59443 -15.94634 36.60209 119.10167 24.92436 10.67700 0.28219 27.04416 -9.99788 -26.49975 -36.03459 17.00027 83.35683 -26.06659 0.00330 -0.00316 21.99630 -14.34555 -63.97657 -34.87728 12.48136 18.55956 36.45874 5.04381 -14.19127 -24.19983 0.02154 -0.00568 6.12300 -23.92362 4.43170 
-60.21135 90.52595 -112.65915 -9.20297 -12.38117 -32.38330 -9.51352 35.50087 -16.88209 -0.02958 0.01705 0.07394 -6.22822 -11.47488 45.60640 -3.39368 8.77310 6.37935 -97.05631 -73.83202 -102.16182 330.65460 20.80439 -62.39292 -19.32070 -2.49928 18.51186 0.86119 9.33505 16.74966 98.55011 2.98229 70.76926 -15.29477 37.39005 119.57045 22.52652 11.15799 -0.03038 27.19243 -10.04008 -30.57182 -37.86914 15.81506 87.44059 -25.83974 0.00796 0.00250 21.56744 -15.91848 -62.35101 -35.39533 12.75259 14.09097 35.86055 5.26963 -10.93626 -23.43255 0.03066 -0.00739 4.77263 -22.84783 3.51982 
-58.96891 90.29035 -111.82301 -9.98001 -11.72221 -34.76469 -7.81902 33.86472 -21.42636 -0.02685 0.02222 0.06425 -7.20479 -11.78681 50.70089 -6.38901 8.91912 12.00357 -65.96066 -69.52702 -79.26860 331.49109 6.85709 -49.60973 -13.11321 5.27990 1.00784 -1.63383 10.05562 21.74299 98.84127 1.63244 70.18563 -14.77947 37.30445 119.38891 23.79838 10.88842 2.60403 27.22346 -9.97754 -34.09095 -39.33454 14.56948 91.08302 -25.36157 0.00932 0.00483 21.09047 -17.40141 -60.92266 -35.73352 12.95970 9.98374 35.20204 5.49609 -8.01260 -22.39824 0.03685 -0.00834 5.37680 -21.89337 7.80303 
-57.86664 90.02991 -110.90495 -10.60351 -11.07071 -36.85102 -6.56786 32.06350 -24.63556 -0.02451 0.02521 0.05614 -8.13707 -11.75310 54.46266 -8.85570 9.23526 16.41238 -45.42579 -62.78176 -67.64394 331.40701 -8.60639 -37.29372 -29.66531 -3.73498 5.09897 -3.59838 10.92379 25.38417 98.47383 0.94092 69.67796 -14.27073 36.57083 118.81496 22.41751 11.25130 2.56811 27.02989 -9.87320 -35.99041 -40.23941 14.21258 93.58038 -24.73028 0.00809 0.00522 20.53086 -18.82521 -59.77998 -35.93582 13.08988 6.26532 34.47739 5.72846 -5.45997 -21.16274 0.03926 -0.00895 4.52405 -21.02648 8.76424 
-56.91463 89.77150 -109.94347 -11.07972 -10.46157 -38.65999 -5.70184 30.26320 -26.61229 -0.02323 0.02705 0.04918 -9.05278 -11.45423 56.96552 -10.69773 9.74850 19.93408 -30.97388 -55.15347 -62.74643 331.15216 -26.69245 -26.68367 -18.12903 7.93892 -4.29575 -5.04364 11.92486 27.91882 97.66556 0.43191 69.13300 -13.77703 35.46530 118.12372 23.26163 11.20050 4.42944 26.72725 -9.76985 -36.42610 -40.80141 14.73457 95.11674 -23.99986 0.00557 0.00483 19.83893 -20.20411 -58.97635 -36.03753 13.14426 2.96070 33.69524 5.97907 -3.29034 -19.77661 0.03894 -0.00852 4.00804 -20.23612 10.73677 
-56.08156 89.53806 -108.98378 -11.43646 -9.92700 -40.20177 -5.12203 29.52160 -26.55359 -0.05331 0.09582 0.11584 -9.73011 -11.67784 57.13461 -11.58689 9.65731 21.41556 -19.19095 -47.00024 -60.05073 333.40460 -43.08385 -20.63619 -24.98837 13.42457 -7.86799 -5.28985 12.22417 28.30314 96.56838 -0.12352 68.48958 -13.21959 34.16552 117.39848 22.46072 11.43064 4.79985 26.37706 -9.69474 -35.56664 -41.11646 16.06007 95.81207 -23.17296 0.00274 0.00438 18.96699 -21.54003 -58.51254 -36.06353 13.13253 0.09494 32.85814 6.26060 -1.50809 -18.28255 0.03673 -0.00756 3.05354 -19.54161 11.73100 
-55.32172 89.34383 -108.06764 -11.70411 -9.48947 -41.47327 -4.86389 29.57323 -24.63172 -0.04719 0.07932 0.11184 -10.24825 -11.99016 55.37971 -11.43433 9.47635 21.11693 -9.67343 -37.88782 -58.48740 335.73334 -57.77670 -18.62052 -11.05790 14.28575 -28.45425 -4.51686 12.24695 26.95533 95.26115 -0.91174 67.69803 -12.63186 32.85599 116.80078 22.96530 11.50349 6.39855 26.00919 -9.66470 -33.58139 -41.18672 18.06275 95.73631 -22.21002 -0.00014 0.00416 17.88752 -22.83736 -58.35565 -36.17253 12.88977 -1.24792 32.21878 6.21366 -1.08909 -16.71387 0.03298 -0.00587 2.08027 -18.92376 12.82027 
-54.60452 89.20285 -107.22436 -11.90131 -9.15751 -42.45240 -4.97423 30.14381 -21.05595 -0.03939 0.06099 0.10162 -10.65530 -12.23380 51.89494 -9.90513 9.40527 19.24793 -3.43731 -27.77218 -57.42229 340.34848 -70.91961 -24.35660 -23.77879 17.44173 -15.67830 -2.85407 12.03722 24.12497 93.78505 -2.11509 66.76297 -11.97394 31.63659 116.34415 22.49062 11.76476 7.12797 25.63747 -9.68476 -30.63511 -40.94261 20.57758 94.90897 -21.05117 -0.00324 0.00410 16.59898 -24.11125 -58.46292 -36.30959 12.43173 -1.26694 31.68900 6.01621 -1.88114 -15.08403 0.02819 -0.00348 0.89993 -18.39054 13.55859 
-53.93963 89.13551 -106.46291 -12.03310 -8.93590 -43.09101 -5.48986 30.98941 -16.07447 -0.03302 0.04415 0.09048 -10.97596 -12.26724 46.95633 -8.15950 9.09975 15.71840 -0.09870 -21.38492 -57.07129 348.02966 -78.01034 -28.05459 -11.13095 17.13362 -28.12572 -0.56424 11.56736 20.11754 92.23834 -3.81346 65.70590 -11.27173 30.58892 116.05746 22.85354 12.04803 8.60241 25.26427 -9.73129 -26.89626 -40.26346 23.41144 93.28822 -19.64217 -0.00676 0.00401 15.11836 -25.37596 -58.79459 -36.44524 11.66176 -0.16347 31.57201 8.21343 -3.36696 -22.70077 0.09895 -0.09856 8.38316 -20.04940 13.26907 
-53.37116 89.13816 -105.78584 -12.07954 -8.82555 -43.32975 -6.44336 31.86284 -9.96182 -0.02833 0.02842 0.07711 -11.17119 -11.99097 40.85899 -6.17177 8.63758 10.87578 -2.01588 -19.84331 -55.87670 348.38690 -76.80400 -39.57876 -23.55038 12.04460 -10.42531 2.08062 10.81217 15.29205 90.69193 -6.12421 64.59745 -10.50712 29.73422 115.87843 22.70445 12.46312 9.53430 24.88512 -9.76270 -22.51811 -39.01220 26.35909 90.77111 -17.95408 -0.01066 0.00374 13.46560 -26.61598 -59.32915 -36.48587 10.61903 1.84930 31.62913 9.57917 -5.93043 -30.22974 0.02915 -0.10650 15.66461 -20.67939 13.06402 
-52.91814 89.19408 -105.17917 -11.92093 -8.81036 -42.86003 -7.45722 32.58683 -4.20521 -0.00768 0.00139 0.02015 -11.25643 -11.58671 34.58167 -3.79915 8.06032 4.93259 -4.71108 -19.63563 -53.62778 346.38196 -74.07500 -52.44654 -25.50431 6.63313 -4.91117 4.68159 9.81698 10.15741 88.33070 -9.33477 63.16328 -9.74587 28.92419 115.39252 21.70373 12.49888 11.95083 24.24016 -10.12322 -18.46690 -37.42497 29.21938 87.88601 -16.14233 -0.01275 0.00502 11.76481 -27.84604 -59.92457 -36.44671 9.67147 3.57197 31.13259 11.98990 -8.13965 -30.04023 0.02247 0.01612 15.57932 -21.99851 11.90181 
-52.60119 89.29319 -104.60359 -11.57078 -8.84947 -41.72221 -8.49830 33.14120 1.17364 -0.00687 -0.00644 0.01387 -11.16277 -11.09781 28.08544 -2.05164 6.34184 0.97895 -7.77972 -19.78678 -53.55119 343.33365 -69.62328 -64.11322 -22.42313 2.93479 -5.65890 6.93791 8.28387 7.93664 85.41621 -16.40215 61.08843 -9.06151 28.36100 114.71011 19.99314 12.05711 15.28640 23.37764 -10.74727 -14.71786 -35.41659 31.90715 84.53224 -14.20027 -0.01367 0.00516 9.96333 -28.99485 -60.61057 -36.38298 8.85637 5.03284 30.87634 15.17691 -9.89533 -29.75806 0.01611 0.02654 15.16236 -23.63315 10.07116 
-52.43262 89.42905 -104.03504 -11.03196 -8.90274 -39.94790 -9.50708 33.48029 6.18429 -0.00791 -0.01032 0.01248 -10.89610 -10.50661 21.42282 -1.40652 4.16234 -0.99543 -11.11929 -20.06108 -55.57010 339.28018 -62.88156 -75.10082 -15.72221 0.89239 -9.03279 8.24447 6.43999 7.74892 82.10883 -26.13932 58.16319 -8.34058 28.07252 113.72720 22.26767 14.93831 16.60489 22.33796 -11.52845 -11.25168 -32.79204 33.88075 80.97891 -11.69136 -0.02465 -0.00225 7.69715 -29.75651 -61.94614 -36.33333 8.19641 6.24641 30.93500 18.85548 -11.09800 -29.54411 0.01148 0.02585 13.25374 -21.63509 10.54898 
-52.34465 89.72563 -103.46383 -10.24591 -9.02549 -37.56266 -10.52146 33.47592 10.81423 -0.01016 -0.01888 0.01246 -10.43313 -9.64857 14.63451 -1.96835 0.92926 -1.27024 -14.86207 -18.78601 -59.12277 339.82349 -54.45770 -81.56517 -6.27622 2.59321 -9.60364 9.81747 4.59631 5.49512 78.61285 -32.16920 55.40611 -7.06439 28.22014 113.07660 21.09452 12.00163 22.93879 21.07495 -12.28102 -8.12063 -30.16455 35.45284 77.68950 -9.03369 -0.04656 0.00031 6.58578 -26.87786 -58.60650 -36.05450 7.69511 7.11684 31.51960 21.56562 -12.33965 -29.77220 0.01566 0.00225 13.95158 -25.25607 14.22029 
